<?xml version="1.0" standalone="no"?>
<!DOCTYPE svg PUBLIC "-//W3C//DTD SVG 20010904//EN"
 "http://www.w3.org/TR/2001/REC-SVG-20010904/DTD/svg10.dtd">
<svg version="1.0" xmlns="http://www.w3.org/2000/svg"
 width="756.000000pt" height="483.000000pt" viewBox="0 0 756.000000 483.000000"
 preserveAspectRatio="xMidYMid meet">
<metadata>
Created by potrace 1.10, written by Peter Selinger 2001-2011
</metadata>
<g transform="translate(0.000000,483.000000) scale(0.100000,-0.100000)"
fill="#0c2e47" stroke="none">
<path d="M1363 4248 c-9 -18 -20 -53 -24 -78 -20 -125 -31 -178 -69 -335 -7
-27 -16 -72 -21 -100 -12 -75 -38 -190 -49 -220 -5 -14 -10 -40 -10 -56 0 -17
-6 -51 -14 -77 -15 -50 -35 -148 -46 -222 -3 -25 -12 -55 -18 -67 -7 -12 -12
-35 -12 -52 0 -16 -6 -56 -14 -88 -7 -32 -21 -94 -31 -138 -9 -44 -23 -105
-30 -135 -7 -30 -19 -82 -25 -115 -12 -58 -15 -75 -40 -200 -7 -33 -18 -82
-25 -110 -12 -47 -28 -128 -45 -220 -4 -22 -12 -60 -18 -85 -6 -25 -19 -81
-27 -125 -9 -44 -22 -107 -30 -140 -7 -33 -21 -96 -30 -140 -9 -44 -21 -96
-26 -115 -5 -19 -13 -60 -19 -90 -5 -30 -15 -78 -21 -106 -22 -92 -89 -84 683
-79 817 5 919 13 1138 85 236 77 410 197 587 405 60 71 163 210 163 221 0 3
11 20 24 37 23 31 92 155 127 227 70 146 157 392 193 545 50 218 73 504 56
687 -11 128 -40 291 -59 340 -34 89 -49 121 -85 182 -97 167 -283 298 -496
349 -194 46 -208 47 -957 47 l-712 0 -18 -32z"/>
<path d="M3245 4271 c-15 -6 -7 -10 35 -15 140 -18 300 -96 386 -188 118 -125
165 -238 210 -498 24 -139 24 -505 0 -665 -56 -371 -179 -712 -359 -997 -185
-293 -394 -543 -522 -624 -67 -42 -196 -94 -236 -94 -14 0 -34 -6 -44 -14 -17
-12 -14 -14 26 -19 24 -3 211 -6 414 -7 474 0 651 15 867 75 467 132 848 460
1073 924 32 64 61 124 66 134 35 66 126 380 139 479 4 31 11 61 14 67 13 20
31 262 30 401 0 132 -16 329 -28 349 -4 5 -10 29 -15 53 -23 106 -96 259 -163
340 -103 123 -264 219 -438 261 -190 46 -206 47 -835 46 -330 0 -609 -4 -620
-8z"/>
<path d="M4880 4266 c0 -7 21 -21 48 -31 64 -23 171 -77 184 -92 6 -7 14 -13
19 -13 18 0 153 -137 188 -190 41 -64 86 -156 111 -230 37 -107 69 -353 69
-525 0 -112 -23 -391 -39 -475 -31 -157 -43 -208 -56 -238 -8 -18 -14 -39 -14
-48 0 -20 -46 -152 -80 -229 -149 -342 -336 -587 -593 -783 -128 -97 -333
-206 -429 -226 -34 -8 -36 -22 -4 -30 13 -3 609 -6 1325 -5 l1301 0 14 22 c8
12 26 81 40 152 14 72 33 164 42 205 10 41 18 93 18 115 l1 40 -575 5 -575 5
1 40 c1 22 6 58 12 80 5 22 15 76 22 120 11 74 29 176 65 365 8 41 22 118 30
170 9 52 23 129 31 170 28 136 33 164 44 235 9 65 18 116 50 285 6 36 16 88
21 115 5 28 16 88 25 135 9 47 20 110 25 140 14 91 66 377 74 407 4 15 11 55
16 88 5 33 15 96 23 140 8 44 12 83 9 88 -2 4 -328 7 -724 7 -601 0 -719 -2
-719 -14z"/>
<path d="M716 871 c-3 -4 -6 -145 -6 -311 -1 -311 3 -349 36 -306 11 16 14 73
14 304 0 270 -5 322 -30 322 -5 0 -11 -4 -14 -9z"/>
<path d="M1742 868 c-18 -18 -17 -601 1 -616 34 -29 37 -3 35 313 -3 305 -6
333 -36 303z"/>
<path d="M1901 867 c-8 -11 -11 -97 -9 -313 l3 -299 23 -3 22 -3 -2 312 c-3
312 -7 342 -37 306z"/>
<path d="M4083 868 c-10 -13 -28 -84 -58 -223 -9 -44 -20 -96 -25 -115 -37
-162 -54 -270 -42 -282 21 -21 42 13 52 82 5 35 13 67 18 72 5 5 42 8 83 6
l73 -3 14 -70 c15 -77 36 -111 52 -85 10 16 7 50 -15 145 -8 33 -21 96 -30
140 -50 256 -73 339 -96 343 -9 1 -20 -3 -26 -10z m67 -277 c24 -133 21 -141
-51 -141 -43 0 -49 3 -55 24 -3 13 1 52 9 87 9 35 18 84 22 109 3 25 13 56 23
70 l16 25 8 -30 c4 -16 16 -81 28 -144z"/>
<path d="M6882 868 c-7 -7 -12 -43 -12 -95 0 -67 -3 -85 -16 -90 -8 -3 -20 -1
-27 6 -17 17 -69 13 -93 -7 -42 -34 -56 -99 -52 -234 4 -140 18 -179 72 -204
29 -14 36 -14 70 0 29 12 43 13 58 5 12 -7 24 -7 29 -2 13 13 7 625 -6 630 -6
2 -16 -2 -23 -9z m-32 -228 c18 -18 20 -33 20 -174 0 -127 -3 -157 -16 -170
-22 -22 -70 -20 -94 4 -22 22 -26 61 -21 220 3 80 6 99 24 118 25 27 61 28 87
2z"/>
<path d="M1226 833 c-3 -3 -6 -30 -6 -59 0 -44 -4 -57 -26 -77 l-25 -24 25
-17 26 -16 0 -184 c0 -168 2 -184 19 -200 11 -10 35 -19 53 -19 27 -2 34 2 36
21 3 16 -2 22 -16 22 -39 0 -43 20 -40 201 l3 174 28 3 c30 4 38 32 9 32 -30
0 -42 22 -42 77 0 41 -4 54 -19 62 -10 6 -21 7 -25 4z"/>
<path d="M2054 816 c-10 -26 4 -48 28 -44 17 2 23 10 23 28 0 18 -6 26 -23 28
-13 2 -25 -3 -28 -12z"/>
<path d="M6184 815 c-4 -9 -4 -32 -1 -53 5 -30 2 -41 -19 -63 -25 -27 -25 -27
-5 -41 19 -13 20 -26 23 -189 3 -193 11 -222 64 -232 56 -10 75 22 27 45 l-28
13 -3 177 -2 178 25 6 c32 8 32 32 1 44 -22 8 -25 16 -28 67 -3 51 -6 58 -26
61 -13 2 -25 -3 -28 -13z"/>
<path d="M965 681 c-26 -16 -32 -17 -47 -4 -9 8 -25 13 -35 11 -17 -3 -18 -19
-21 -203 -3 -213 0 -245 23 -245 28 0 35 39 35 207 1 116 4 173 13 184 16 21
63 32 87 19 18 -10 20 -24 22 -202 3 -170 5 -192 21 -202 31 -19 37 11 37 202
0 141 -3 189 -15 211 -23 45 -67 53 -120 22z"/>
<path d="M1462 687 c-47 -22 -62 -74 -62 -218 0 -102 4 -139 17 -166 45 -96
172 -95 208 2 20 51 17 78 -9 83 -23 5 -36 -14 -36 -55 0 -43 -45 -70 -84 -51
-14 6 -28 18 -31 27 -4 15 -9 118 -6 149 1 8 23 12 74 12 101 0 112 9 104 89
-8 69 -19 98 -51 123 -24 20 -89 23 -124 5z m96 -43 c20 -14 23 -23 20 -77
l-3 -62 -34 -3 c-19 -2 -44 -1 -57 2 -21 6 -24 12 -24 59 0 86 42 120 98 81z"/>
<path d="M2265 689 c-40 -20 -59 -61 -63 -131 -3 -54 0 -76 17 -108 25 -48 26
-66 7 -77 -23 -13 -30 -58 -11 -77 19 -19 13 -45 -15 -71 -20 -18 -27 -69 -12
-91 16 -25 60 -37 130 -37 57 0 79 4 100 20 60 44 66 100 17 146 -18 16 -48
27 -100 36 -82 13 -103 28 -85 60 8 16 21 21 53 21 54 0 86 17 114 59 19 28
23 47 23 112 0 73 2 80 25 95 14 9 25 20 25 25 0 13 -27 11 -49 -3 -15 -9 -25
-7 -53 10 -37 23 -89 27 -123 11z m105 -49 c33 -33 31 -161 -3 -197 -67 -74
-159 51 -118 160 22 57 82 76 121 37z m31 -406 c21 -19 24 -46 9 -73 -20 -38
-160 -38 -181 1 -13 25 6 85 29 92 34 10 124 -3 143 -20z"/>
<path d="M2594 689 c-11 -6 -29 -25 -40 -42 -17 -28 -19 -51 -19 -183 1 -138
3 -152 23 -181 39 -55 107 -66 166 -27 30 19 50 75 42 110 -8 30 -39 29 -44
-1 -8 -53 -15 -66 -43 -80 -28 -15 -33 -15 -55 -1 -29 20 -36 45 -32 121 l3
60 75 5 c41 3 81 9 88 13 7 5 12 28 12 55 0 108 -39 163 -114 161 -22 0 -50
-5 -62 -10z m105 -55 c24 -30 29 -102 9 -122 -7 -7 -30 -12 -53 -12 -53 0 -65
13 -65 72 0 82 65 118 109 62z"/>
<path d="M2956 683 c-23 -12 -33 -13 -51 -3 -13 7 -28 9 -34 6 -7 -5 -11 -75
-11 -215 0 -167 3 -211 14 -220 25 -21 30 7 32 188 l2 175 26 23 c32 27 68 30
87 6 15 -17 17 -42 18 -248 1 -140 8 -168 36 -145 14 12 16 38 13 211 -3 177
-5 199 -22 218 -22 25 -67 26 -110 4z"/>
<path d="M3229 685 c-41 -22 -52 -59 -56 -195 -5 -153 7 -204 56 -237 81 -55
171 2 171 107 0 33 -3 40 -19 40 -15 0 -20 -10 -26 -49 -5 -38 -13 -54 -32
-67 -24 -15 -29 -15 -58 -1 -32 15 -33 17 -40 101 -9 109 2 235 23 259 20 22
64 22 85 -1 9 -10 19 -37 23 -60 5 -32 11 -42 23 -40 22 4 26 69 6 108 -25 49
-100 66 -156 35z"/>
<path d="M3533 680 c-42 -25 -53 -67 -53 -210 0 -133 10 -177 46 -211 20 -19
36 -24 76 -23 44 0 55 5 80 32 46 52 37 157 -10 110 -7 -7 -12 -27 -12 -45 0
-26 -6 -36 -30 -48 -27 -14 -33 -14 -59 0 -24 12 -31 24 -36 57 -4 24 -5 61
-3 83 l3 40 82 5 c45 3 85 9 90 13 16 16 3 139 -17 173 -30 48 -100 59 -157
24z m106 -39 c27 -27 36 -87 16 -117 -12 -19 -24 -24 -58 -24 -54 0 -67 13
-67 66 0 77 63 121 109 75z"/>
<path d="M4707 668 c-26 -25 -36 -45 -41 -80 -9 -59 1 -133 20 -149 18 -15 18
-47 -1 -65 -17 -17 -20 -80 -5 -89 15 -10 12 -21 -15 -53 -33 -39 -33 -84 0
-110 33 -26 117 -35 180 -20 41 11 53 19 69 49 36 67 -4 131 -90 143 -27 4
-64 12 -82 18 -28 8 -33 14 -30 36 3 25 7 27 58 32 65 6 94 24 122 76 17 31
19 50 15 103 -5 59 -3 66 21 88 19 18 23 26 14 35 -9 9 -17 7 -32 -7 -20 -18
-21 -18 -59 3 -57 32 -102 29 -144 -10z m128 -29 c17 -16 20 -33 20 -100 0
-74 -2 -82 -25 -100 -31 -24 -78 -18 -102 13 -39 52 -29 160 19 198 29 23 56
19 88 -11z m25 -401 c51 -32 25 -92 -44 -102 -118 -18 -173 39 -103 105 19 18
30 20 75 15 29 -4 61 -12 72 -18z"/>
<path d="M5108 683 c-21 -11 -32 -11 -49 -3 -47 26 -49 16 -49 -214 0 -191 2
-215 17 -220 9 -4 20 -1 25 6 4 7 8 92 8 188 1 192 3 202 60 221 28 10 34 9
53 -10 21 -20 22 -32 25 -208 1 -103 6 -191 11 -196 25 -25 31 10 31 179 0
112 4 183 11 197 10 18 8 25 -22 49 -37 31 -77 35 -121 11z"/>
<path d="M5290 680 c-32 -24 -22 -33 20 -18 30 10 35 9 52 -12 16 -20 18 -43
18 -205 0 -142 3 -185 14 -194 32 -27 38 11 34 215 -3 192 -3 196 -27 215 -30
24 -79 24 -111 -1z"/>
<path d="M5572 687 c-48 -22 -62 -73 -62 -219 0 -152 12 -189 71 -222 82 -45
187 31 165 119 -7 26 -30 33 -42 13 -4 -7 -10 -27 -13 -46 -4 -22 -15 -39 -33
-50 -26 -16 -30 -16 -55 0 -27 16 -28 21 -31 102 l-3 86 75 0 c92 0 106 11
106 82 0 92 -47 149 -122 147 -18 0 -43 -5 -56 -12z m102 -46 c22 -24 26 -119
5 -132 -8 -5 -34 -8 -59 -7 l-45 3 -3 62 c-3 54 0 63 20 77 30 21 61 20 82 -3z"/>
<path d="M5942 683 c-19 -13 -27 -14 -47 -3 -53 28 -55 20 -55 -214 0 -118 4
-217 9 -220 5 -4 16 -3 24 0 13 5 16 36 19 194 2 109 7 193 13 198 19 19 70
23 90 8 19 -13 20 -28 23 -203 2 -103 7 -192 12 -197 6 -6 15 -4 25 4 12 10
15 43 15 199 0 168 -2 189 -20 219 -16 26 -26 32 -52 31 -18 0 -43 -7 -56 -16z"/>
<path d="M6432 687 c-48 -27 -52 -45 -54 -221 -2 -182 0 -189 65 -223 31 -16
90 -11 118 10 46 35 64 132 24 132 -12 0 -21 -8 -23 -20 -8 -52 -14 -66 -37
-81 -21 -14 -30 -14 -55 -4 -16 7 -31 20 -34 29 -11 38 -18 113 -12 136 6 24
10 25 74 25 106 0 112 4 112 63 0 75 -19 127 -54 148 -35 22 -91 24 -124 6z
m107 -53 c25 -32 28 -96 5 -118 -24 -25 -90 -21 -108 6 -18 25 -13 78 10 116
20 32 67 30 93 -4z"/>
<path d="M2057 683 c-4 -3 -7 -100 -7 -213 0 -172 3 -210 15 -220 12 -10 18
-10 30 0 12 10 15 47 15 214 0 144 -3 205 -12 214 -13 13 -31 16 -41 5z"/>
<path d="M4347 683 c-4 -3 -7 -96 -7 -205 0 -198 0 -199 25 -223 30 -31 49
-31 102 0 42 23 43 23 53 4 14 -24 36 -24 50 0 12 24 14 400 1 419 -5 8 -17
12 -27 10 -18 -3 -19 -17 -24 -190 -3 -115 -9 -191 -16 -198 -20 -20 -79 -23
-97 -5 -15 14 -17 41 -17 190 0 95 -3 180 -6 189 -6 16 -26 21 -37 9z"/>
</g>
</svg>
